<svg width="76" height="77" viewBox="0 0 76 77" fill="none" xmlns="http://www.w3.org/2000/svg">
<path d="M0 0H75V75H0V0Z" fill="#EA4524"/>
<path d="M68.7939 61.6012L64.2313 57.653L65.5139 51.7572C65.6037 51.3443 65.1562 51.0243 64.7946 51.2427L59.6297 54.3619L54.4188 51.3202C54.054 51.1072 53.6113 51.4339 53.7072 51.8453L55.0778 57.7213L50.5747 61.7372C50.2593 62.0184 50.4333 62.5404 50.8542 62.5763L56.8661 63.0886L59.2939 68.6123C59.4639 68.9991 60.0141 68.995 60.1783 68.6057L62.5233 63.0463L68.5269 62.4443C68.9473 62.4021 69.1134 61.8776 68.7939 61.6012Z" fill="#FFF6F6"/>
<path d="M60.2696 47.7719C60.2713 48.2961 59.9116 50.285 59.6942 51.4385C59.6601 51.6199 59.4013 51.6207 59.366 51.4396C59.1414 50.2874 58.7692 48.3008 58.7676 47.7766C58.7663 47.3618 59.1015 47.0245 59.5163 47.0232C59.931 47.0219 60.2683 47.3571 60.2696 47.7719Z" fill="#FFF6F6"/>
<path d="M70.261 54.9176C69.7644 55.0855 67.9984 56.0686 66.977 56.6472C66.8164 56.7381 66.8993 56.9833 67.0821 56.9581C68.245 56.7983 70.2453 56.5084 70.742 56.3406C71.1349 56.2078 71.3458 55.7816 71.2129 55.3886C71.0801 54.9957 70.6539 54.7848 70.261 54.9176Z" fill="#FFF6F6"/>
<path d="M66.9405 67.8801C66.6297 67.458 65.1564 66.0743 64.2949 65.277C64.1595 65.1516 63.9511 65.3051 64.0306 65.4716C64.5362 66.531 65.4201 68.3486 65.7309 68.7707C65.9769 69.1047 66.447 69.1761 66.781 68.9302C67.115 68.6842 67.1864 68.2141 66.9405 67.8801Z" fill="#FFF6F6"/>
<path d="M49.0759 55.1034C49.5758 55.2612 51.3614 56.2081 52.3944 56.7657C52.5567 56.8534 52.4789 57.1001 52.2956 57.0788C51.1297 56.9427 49.1239 56.6936 48.624 56.5359C48.2285 56.4111 48.0089 55.9893 48.1338 55.5937C48.2586 55.1981 48.6803 54.9787 49.0759 55.1034Z" fill="#FFF6F6"/>
<path d="M52.4854 67.9625C52.7903 67.5361 54.2443 66.1321 55.0947 65.323C55.2284 65.1958 55.4389 65.3463 55.3617 65.5139C54.8708 66.5802 54.0121 68.4099 53.7071 68.8362C53.4659 69.1736 52.9968 69.2515 52.6594 69.0102C52.322 68.7689 52.2441 68.2998 52.4854 67.9625Z" fill="#FFF6F6"/>
<path d="M65.0475 53.9011L65.5139 51.7571C65.6037 51.3443 65.1562 51.0242 64.7946 51.2427L59.6297 54.3619L54.4188 51.3202C54.054 51.1072 53.6113 51.4339 53.7072 51.8453L55.0778 57.7213L50.5747 61.7372C50.2593 62.0184 50.4333 62.5404 50.8542 62.5763L51.6544 62.6445C56.8378 57.3428 62.5554 54.8188 65.0475 53.9011Z" fill="#FFEDED"/>
<path d="M23.2847 24.0722C22.2977 24.0722 21.4976 23.2721 21.4976 22.2851C21.4976 21.2981 22.2977 20.498 23.2847 20.498C24.2717 20.498 25.0718 21.2981 25.0718 22.2851C25.0718 23.2721 24.2717 24.0722 23.2847 24.0722Z" fill="#FFF6F6"/>
<path d="M7 11.3613C7 9.92926 7.5577 8.58297 8.57039 7.57039C9.58297 6.5577 10.9293 6 12.3613 6C13.7935 6 15.1398 6.55782 16.1523 7.57039L22.0221 13.4402C22.4349 13.3816 22.8561 13.3493 23.2849 13.3493C25.801 13.3493 28.076 14.3963 29.7014 16.0755L48.3341 27.271C48.5365 21.6809 46.5104 16.0245 42.2525 11.7666C41.5546 11.0688 41.5546 9.93724 42.2525 9.23931C42.9503 8.54151 44.0819 8.54151 44.7799 9.23931C50.2579 14.7175 52.5837 22.1719 51.759 29.3289L59.425 33.935C61.4709 35.1643 62.9156 37.1168 63.493 39.4326C63.9235 41.1593 63.8328 42.9337 63.2496 44.5727L67.1331 46.9062C67.9792 47.4146 68.2528 48.5125 67.7446 49.3585C67.4094 49.9164 66.8178 50.2254 66.211 50.2254C65.8978 50.2254 65.5804 50.143 65.2923 49.9698L48.1035 39.6419C47.1673 41.1096 46.0605 42.4991 44.7797 43.7799C43.499 45.0606 42.1094 46.1674 40.6417 47.1036L50.9698 64.2923C51.4782 65.1383 51.2044 66.2362 50.3584 66.7446C50.0703 66.9177 49.753 67.0001 49.4397 67.0001C48.8329 67.0001 48.2412 66.6911 47.9061 66.1333L45.5717 62.2482C44.6048 62.5902 43.6032 62.7566 42.609 62.7564C39.5733 62.7562 36.6091 61.2112 34.9349 58.4251L30.3288 50.7591C29.3924 50.8671 28.451 50.922 27.5095 50.922C21.2551 50.922 15.0006 48.5414 10.2392 43.78C9.54127 43.0822 9.54127 41.9506 10.2392 41.2526C10.9369 40.5547 12.0685 40.5547 12.7665 41.2526C17.0245 45.5105 22.6809 47.5366 28.2709 47.3342L17.0754 28.7017C15.3962 27.0761 14.3492 24.8012 14.3492 22.2851C14.3492 21.8563 14.3814 21.4351 14.4401 21.0223L8.57027 15.1526C7.55782 14.1398 7 12.7935 7 11.3613ZM23.2851 16.9238C20.3289 16.9238 17.9238 19.3289 17.9238 22.2851C17.9238 25.2413 20.3289 27.6464 23.2851 27.6464C26.2413 27.6464 28.6464 25.2413 28.6464 22.2851C28.6464 19.3289 26.2413 16.9238 23.2851 16.9238ZM32.2028 21.7482C32.2134 21.9259 32.2203 22.1046 32.2203 22.2849C32.2203 23.4389 31.998 24.5411 31.5979 25.5547L46.7096 34.6345C47.1886 33.4984 47.5627 32.3284 47.8316 31.139L32.2028 21.7482ZM60.0763 42.6659C60.5155 40.5029 59.5812 38.1987 57.584 36.9987L51.0319 33.0618C50.7091 34.228 50.2982 35.3745 49.7997 36.4912L60.0763 42.6659ZM42.2525 41.2525C43.3225 40.1825 44.2502 39.0236 45.0385 37.8002L29.6466 28.5518C29.6153 28.5836 29.5837 28.6152 29.5519 28.6465L38.8002 44.0384C40.0235 43.2502 41.1825 42.3224 42.2525 41.2525ZM37.9986 56.584C38.7362 57.8115 39.9076 58.6784 41.2973 59.0247C42.0867 59.2218 42.8928 59.2373 43.6673 59.0783L37.4912 48.7996C36.3745 49.2982 35.228 49.7091 34.0617 50.0318L37.9986 56.584ZM32.1389 46.8318C33.3283 46.5629 34.4984 46.1886 35.6345 45.7096L26.5547 30.598C25.5411 30.9981 24.4389 31.2203 23.2849 31.2203C23.1046 31.2203 22.9259 31.2133 22.7482 31.2028L32.1389 46.8318ZM11.0977 12.6249L15.8336 17.3608C16.498 16.3586 17.3587 15.4979 18.3609 14.8334L13.6251 10.0976C13.2874 9.7602 12.8387 9.57422 12.3613 9.57422C11.8841 9.57422 11.4352 9.7602 11.0977 10.0977C10.7602 10.4352 10.5742 10.8841 10.5742 11.3613C10.5742 11.8387 10.7602 12.2874 11.0977 12.6249Z" fill="#FFF6F6"/>
</svg>
